<?xml version="1.0" encoding="UTF-8"?>
<svg version="1.1" xmlns="http://www.w3.org/2000/svg" width="512" height="512">
<path d="M0 0 C0 0.66 0 1.32 0 2 C0.86625 2.268125 1.7325 2.53625 2.625 2.8125 C9.28195501 5.15476195 12.86497434 7.70756796 17.34375 13.0703125 C20.95487873 17.27761814 25.01405353 19.68095513 30 22 C30 22.66 30 23.32 30 24 C44.20647518 27.07777981 56.73036564 27.75516694 71 24 C71 23.34 71 22.68 71 22 C71.58007812 21.72027344 72.16015625 21.44054687 72.7578125 21.15234375 C77.74681178 18.59198273 81.13861212 16.09638684 84.60546875 11.703125 C88.24463498 7.25865307 92.73544693 4.27332973 98 2 C98.66 2 99.32 2 100 2 C100 1.34 100 0.68 100 0 C112.34096517 -3.89546637 125.67458555 -4.10847148 138 0 C138 0.66 138 1.32 138 2 C138.86625 2.2475 139.7325 2.495 140.625 2.75 C146.7253907 5.00940396 150.12899329 8.1058114 154.5 12.8125 C162.11601497 20.62498273 172.05016311 25.83798177 183.07421875 26.16796875 C184.61192348 26.18258508 186.14972633 26.18877643 187.6875 26.1875 C188.48462402 26.18814453 189.28174805 26.18878906 190.10302734 26.18945312 C195.91267516 26.13746523 201.38562747 25.57992393 207 24 C207 23.34 207 22.68 207 22 C207.59425781 21.76667969 208.18851562 21.53335938 208.80078125 21.29296875 C214.38678125 18.83443376 218.45188694 15.86685685 222.625 11.4375 C226.86366924 6.97637578 230.25935589 4.1918823 236 2 C236.66 2 237.32 2 238 2 C238 1.34 238 0.68 238 0 C250.5177987 -2.87746801 262.56567406 -4.44083069 275 0 C275 0.66 275 1.32 275 2 C275.680625 2.0825 276.36125 2.165 277.0625 2.25 C284.23398708 4.08101798 289.57907023 8.41343738 293.6875 14.5 C297.12861199 18.22012107 301.42283587 19.94726418 306 22 C306 22.66 306 23.32 306 24 C318.4747931 27.077482 332.56431312 27.49948978 345 24 C345 23.34 345 22.68 345 22 C345.67546875 21.69707031 346.3509375 21.39414063 347.046875 21.08203125 C352.24671926 18.63990786 355.63137613 16.76253719 359 12 C363.39256643 7.59602431 368.18960661 4.27072845 374 2 C374.66 2 375.32 2 376 2 C376 1.34 376 0.68 376 0 C388.43432594 -4.44083069 400.4822013 -2.87746801 413 0 C413 0.66 413 1.32 413 2 C413.86625 2.2475 414.7325 2.495 415.625 2.75 C425.47597359 6.39850874 433.19292936 14.80026137 438 24 C441.08847844 31.01525816 441.5419757 37.65009899 441.5 45.25 C441.49863037 46.35158447 441.49726074 47.45316895 441.49584961 48.58813477 C441.33774442 56.98507015 440.0997641 63.56665722 436 71 C435.67 71.66 435.34 72.32 435 73 C434.34 73 433.68 73 433 73 C432.7525 73.556875 432.505 74.11375 432.25 74.6875 C429.07370425 80.56364715 424.88590064 84.0060895 419 87 C418.34 87 417.68 87 417 87 C417 87.66 417 88.32 417 89 C403.54269741 94.41191343 388.64753255 95.28492571 374.87109375 90.3359375 C367.88557936 87.08553489 362.28005844 82.565467 357 77 C351.69459522 71.56726551 346.21992383 69.21950642 339 67 C339 66.34 339 65.68 339 65 C330.09 65 321.18 65 312 65 C312 65.66 312 66.32 312 67 C310.22934889 67.64633275 308.45847247 68.2920483 306.6875 68.9375 C305.70136719 69.29714844 304.71523438 69.65679687 303.69921875 70.02734375 C301.8079437 70.70885965 299.90715671 71.3642811 298 72 C298 72.66 298 73.32 298 74 C295.5632347 76.58339015 292.75050405 78.76030385 290 81 C289.16726563 81.69222656 288.33453125 82.38445312 287.4765625 83.09765625 C275.35132281 92.6093912 262.03740922 94.68124119 247 93 C242.51089878 92.13094146 238.2394553 90.7049156 234 89 C234 88.34 234 87.68 234 87 C233.278125 86.731875 232.55625 86.46375 231.8125 86.1875 C227.54678782 84.38642152 224.68211554 82.85264443 221.75 79.1875 C215.47476223 71.36282081 204.69280621 66.0494192 194.86669922 64.70898438 C179.95067823 63.42463032 167.90817198 67.3324882 156.375 77 C154.45167149 78.67447679 152.65417685 80.35599442 150.875 82.1875 C148.33039243 84.64728732 145.65335756 87 142 87 C142 87.66 142 88.32 142 89 C126.74551607 94.90939467 111.19382517 95.69112685 96 89 C96 88.34 96 87.68 96 87 C95.01 86.7215625 95.01 86.7215625 94 86.4375 C90.39324515 84.7092633 87.87833968 82.42515414 84.9375 79.74609375 C83.35486767 78.31981017 81.68737395 76.98818409 80 75.6875 C79.34 75.130625 78.68 74.57375 78 74 C78 73.34 78 72.68 78 72 C73.41664092 70.07794619 68.72065967 68.54269924 64 67 C64 66.34 64 65.68 64 65 C55.09 65 46.18 65 37 65 C37 65.66 37 66.32 37 67 C35.67935547 67.45439453 35.67935547 67.45439453 34.33203125 67.91796875 C25.71544385 70.98692875 25.71544385 70.98692875 19 77 C8.31415929 87 8.31415929 87 4 87 C4 87.66 4 88.32 4 89 C-10.84762012 94.97103574 -26.15237988 94.97103574 -41 89 C-41 88.34 -41 87.68 -41 87 C-41.721875 86.731875 -42.44375 86.46375 -43.1875 86.1875 C-52.17700466 82.39193137 -58.47755778 74.99765248 -62.4375 66.125 C-62.97593708 64.75679757 -63.4968945 63.38158504 -64 62 C-64.33789551 61.23671387 -64.67579102 60.47342773 -65.02392578 59.68701172 C-68.75768462 49.40843497 -67.37164833 33.72219363 -62.83203125 23.87109375 C-59.25458695 18.26465119 -54.74415266 13.62665043 -50 9 C-49.47792969 8.43925781 -48.95585938 7.87851563 -48.41796875 7.30078125 C-46.71925977 5.74246144 -45.00653354 4.82187898 -42.9375 3.8125 C-42.24527344 3.46832031 -41.55304687 3.12414062 -40.83984375 2.76953125 C-39 2 -39 2 -37 2 C-37 1.34 -37 0.68 -37 0 C-24.25184231 -3.16025758 -12.77410491 -3.83223147 0 0 Z " fill="#C5C5C5" transform="translate(68,150)"/>
<path d="M0 0 C1.18158691 0.01071533 2.36317383 0.02143066 3.58056641 0.0324707 C13.8757132 0.32392306 22.58501379 1.93842209 30.33203125 9.23828125 C31.87217024 10.88337009 33.40726637 12.53319337 34.9375 14.1875 C37.78770415 16.8388527 40.68045151 18.66166564 44.05078125 20.57421875 C44.57027344 20.94160156 45.08976562 21.30898438 45.625 21.6875 C45.625 22.3475 45.625 23.0075 45.625 23.6875 C60.50382402 28.06707501 73.50398953 29.26890506 88.625 24.6875 C89.95634241 24.34630169 91.28895159 24.00977866 92.625 23.6875 C92.625 23.0275 92.625 22.3675 92.625 21.6875 C94.41796875 20.35546875 94.41796875 20.35546875 96.8125 18.875 C100.56209499 16.46119822 103.54587705 13.93306203 106.625 10.6875 C114.2784034 3.22076498 123.73428651 0.06716192 134.3359375 0.00390625 C135.96402344 0.03291016 135.96402344 0.03291016 137.625 0.0625 C138.71039063 0.04316406 139.79578125 0.02382813 140.9140625 0.00390625 C150.99364172 0.06404694 160.22253089 2.92407657 167.9375 9.625 C168.74574219 10.31078125 169.55398437 10.9965625 170.38671875 11.703125 C171.12535156 12.35796875 171.86398438 13.0128125 172.625 13.6875 C184.12966394 23.84006941 194.42958515 28.39790745 210.17578125 27.96484375 C222.99430702 26.93413556 232.7654209 22.00141649 241.625 12.6875 C243.13979447 11.30333918 244.68514888 9.95230721 246.25 8.625 C247.00539063 7.97402344 247.76078125 7.32304687 248.5390625 6.65234375 C257.03986733 1.23980599 265.50512014 -0.03132617 275.4375 0.0625 C276.57300293 0.06507812 277.70850586 0.06765625 278.87841797 0.0703125 C287.94051245 0.27765343 294.870646 1.95029465 302.625 6.6875 C302.625 7.3475 302.625 8.0075 302.625 8.6875 C303.4603125 9.0278125 303.4603125 9.0278125 304.3125 9.375 C307.2719509 11.05468835 309.28626784 13.22883285 311.625 15.6875 C312.223125 16.244375 312.82125 16.80125 313.4375 17.375 C314.625 18.6875 314.625 18.6875 314.625 20.6875 C315.285 20.6875 315.945 20.6875 316.625 20.6875 C317.60793267 22.93592091 318.58644466 25.18609547 319.5625 27.4375 C319.84029297 28.07171875 320.11808594 28.7059375 320.40429688 29.359375 C325.06870547 40.14933224 325.53425962 52.87591076 321.375 63.9375 C319.47939742 68.19326129 317.43036699 71.97717592 314.625 75.6875 C313.75875 77.1725 313.75875 77.1725 312.875 78.6875 C307.74441283 85.52828289 300.30789714 89.27018613 292.625 92.6875 C291.95210938 93.00976562 291.27921875 93.33203125 290.5859375 93.6640625 C283.00535599 96.79580853 274.66630326 95.93677117 266.625 95.6875 C266.625 95.0275 266.625 94.3675 266.625 93.6875 C265.51125 93.625625 264.3975 93.56375 263.25 93.5 C252.52326635 92.13546851 243.13777033 84.93700909 236.625 76.6875 C224.14573965 67.11039322 210.78591504 66.60838144 195.625 67.6875 C189.13268225 68.70505314 183.3784214 71.07812167 178.625 75.6875 C177.8 76.326875 176.975 76.96625 176.125 77.625 C173.57589425 79.64236232 173.57589425 79.64236232 171.375 82.0625 C165.16618599 87.98909519 157.41682684 93.32551082 148.625 93.875 C147.635 93.7821875 147.635 93.7821875 146.625 93.6875 C146.625 94.3475 146.625 95.0075 146.625 95.6875 C140.685 95.6875 134.745 95.6875 128.625 95.6875 C128.625 95.0275 128.625 94.3675 128.625 93.6875 C127.51125 93.625625 126.3975 93.56375 125.25 93.5 C114.55034846 92.13891358 105.09967846 84.94829666 98.625 76.6875 C96.96838239 75.67093919 95.30388441 74.66684924 93.625 73.6875 C93.625 73.0275 93.625 72.3675 93.625 71.6875 C92.04201974 71.2071682 90.45860022 70.72828388 88.875 70.25 C87.99328125 69.98316406 87.1115625 69.71632813 86.203125 69.44140625 C80.49789359 67.77305828 75.43913346 67.47067952 69.5 67.4375 C68.60023437 67.416875 67.70046875 67.39625 66.7734375 67.375 C60.21230045 67.33729232 54.80759349 68.58951519 48.625 70.6875 C47.29519762 71.034652 45.96284393 71.37275802 44.625 71.6875 C44.625 72.3475 44.625 73.0075 44.625 73.6875 C43.05078125 74.80078125 43.05078125 74.80078125 40.9375 76 C37.30089067 78.17811054 34.51146845 80.55361997 31.625 83.6875 C29.9375 85.5 29.9375 85.5 28.625 86.6875 C27.965 86.6875 27.305 86.6875 26.625 86.6875 C26.625 87.3475 26.625 88.0075 26.625 88.6875 C25.30435547 89.19410156 25.30435547 89.19410156 23.95703125 89.7109375 C22.79558594 90.15695313 21.63414063 90.60296875 20.4375 91.0625 C19.28894531 91.50335938 18.14039062 91.94421875 16.95703125 92.3984375 C15.01931859 93.14808015 13.09498619 93.93960073 11.21875 94.83203125 C7.60022949 96.02548907 4.08194234 96.02800416 0.3125 96 C-0.45006104 95.99581055 -1.21262207 95.99162109 -1.99829102 95.98730469 C-7.48196768 95.87667788 -11.40388114 95.12945312 -16.375 92.6875 C-18.10311 92.05958425 -19.83234179 91.43474988 -21.5625 90.8125 C-25.79575109 89.11013756 -28.37765716 87.19867304 -31.375 83.6875 C-32.15875 82.945 -32.9425 82.2025 -33.75 81.4375 C-44.7097362 69.9558716 -48.03893865 60.17658716 -47.99072266 44.40234375 C-47.67714994 34.60996133 -45.69556158 25.32516702 -38.8203125 17.9453125 C-37.60988281 16.82769531 -37.60988281 16.82769531 -36.375 15.6875 C-35.570625 14.8625 -34.76625 14.0375 -33.9375 13.1875 C-23.96354708 3.45681422 -14.02270243 -0.2366743 0 0 Z " fill="#FFFFFF" transform="translate(49.375,20.3125)"/>
<path d="M0 0 C0 0.66 0 1.32 0 2 C0.680625 2.20625 1.36125 2.4125 2.0625 2.625 C7.00199593 4.93710448 10.70376566 8.6372921 14.4375 12.5625 C24.15815009 21.80897204 35.83640953 25.33456767 48.9921875 25.140625 C61.03247478 24.57770248 72.66338173 18.72324405 81 10 C81.70125 9.113125 82.4025 8.22625 83.125 7.3125 C85.18848826 4.76753115 87.08306782 3.45846609 90 2 C90.66 2 91.32 2 92 2 C92 1.34 92 0.68 92 0 C105.06018152 -5.33846836 121.00223762 -6.7270923 134.32421875 -1.39453125 C142.16495333 2.69180779 148.73846153 7.88981288 154 15 C154 15.66 154 16.32 154 17 C154.66 17 155.32 17 156 17 C156.98350025 19.08129104 157.96164458 21.16511359 158.9375 23.25 C159.48277344 24.41015625 160.02804687 25.5703125 160.58984375 26.765625 C162.30439399 30.69816681 163.12593197 33.87412929 163.1328125 38.15234375 C163.13410156 38.92900391 163.13539063 39.70566406 163.13671875 40.50585938 C163.13285156 41.30830078 163.12898437 42.11074219 163.125 42.9375 C163.12886719 43.73607422 163.13273438 44.53464844 163.13671875 45.35742188 C163.13006998 49.36995566 162.99669139 53.08442668 162 57 C161.34 57 160.68 57 160 57 C159.8453125 58.2684375 159.8453125 58.2684375 159.6875 59.5625 C158.64632482 64.76837588 157.13359949 69.50233889 153 73 C152.21625 73.78375 151.4325 74.5675 150.625 75.375 C149.75875 76.24125 148.8925 77.1075 148 78 C146.8553125 79.2684375 146.8553125 79.2684375 145.6875 80.5625 C142.29264274 83.64155658 137.77211782 87 133 87 C133 87.66 133 88.32 133 89 C120.56567406 93.44083069 108.5177987 91.87746801 96 89 C96 88.34 96 87.68 96 87 C95.13375 86.7525 94.2675 86.505 93.375 86.25 C85.95045325 83.50016787 79.84259209 78.05578649 74.5 72.3125 C71.46378161 69.50399799 68.85333513 68.43555623 65 67 C65 66.34 65 65.68 65 65 C52.39634808 62.00930293 39.60365192 62.00930293 27 65 C27 65.66 27 66.32 27 67 C26.35933594 67.27972656 25.71867187 67.55945313 25.05859375 67.84765625 C18.80722682 70.74508563 14.63350465 73.97166036 10 79 C0.68428937 87.88242176 -10.810303 92.02002113 -23.5859375 91.9921875 C-30.21493797 91.66709792 -36.05736178 91.00613926 -42 88 C-42.9075 87.55269531 -43.815 87.10539062 -44.75 86.64453125 C-52.21513305 82.78291322 -57.10318362 78.59863369 -61.7890625 71.6484375 C-62.94245057 69.95399129 -62.94245057 69.95399129 -64.515625 68.671875 C-66.60905886 66.31400738 -67.20733681 63.87366318 -68.125 60.875 C-69.03289987 57.14499662 -69.03289987 57.14499662 -71 54 C-72.75149911 40.74699009 -71.26975764 30.75579557 -65 19 C-64.566875 18.154375 -64.13375 17.30875 -63.6875 16.4375 C-61.93067926 13.89987004 -59.96555154 12.15791318 -57.54296875 10.26171875 C-55.750133 8.84864597 -55.750133 8.84864597 -53.4375 6.3125 C-50.99887295 3.99893075 -49.17508625 2.99788425 -46 2 C-46 1.34 -46 0.68 -46 0 C-31.08460053 -6.09680562 -14.91539947 -6.09680562 0 0 Z " fill="#C5C5C5" transform="translate(210,280)"/>
<path d="M0 0 C0 0.66 0 1.32 0 2 C0.86625 2.268125 1.7325 2.53625 2.625 2.8125 C9.28195501 5.15476195 12.86497434 7.70756796 17.34375 13.0703125 C20.95487873 17.27761814 25.01405353 19.68095513 30 22 C30 22.66 30 23.32 30 24 C44.20647518 27.07777981 56.73036564 27.75516694 71 24 C71 23.34 71 22.68 71 22 C74.3 20.35 77.6 18.7 81 17 C79.25066721 21.37333197 77.28571203 25.42899968 75.12109375 29.59765625 C72.92098512 34.31217474 72.8462688 38.59753776 72.875 43.75 C72.87113281 44.42804688 72.86726562 45.10609375 72.86328125 45.8046875 C72.87891861 54.02993661 73.51971438 60.18154301 77.9375 67.25 C78.6556852 68.44226452 79.37315355 69.63496121 80.08984375 70.828125 C80.72019531 71.87484375 81.35054687 72.9215625 82 74 C82.68538997 75.32380618 83.36285051 76.65231207 84 78 C81.96166576 76.7260411 79.96147874 75.38938077 78 74 C78 73.34 78 72.68 78 72 C73.41664092 70.07794619 68.72065967 68.54269924 64 67 C64 66.34 64 65.68 64 65 C55.09 65 46.18 65 37 65 C37 65.66 37 66.32 37 67 C35.67935547 67.45439453 35.67935547 67.45439453 34.33203125 67.91796875 C25.71544385 70.98692875 25.71544385 70.98692875 19 77 C8.31415929 87 8.31415929 87 4 87 C4 87.66 4 88.32 4 89 C-10.84762012 94.97103574 -26.15237988 94.97103574 -41 89 C-41 88.34 -41 87.68 -41 87 C-41.721875 86.731875 -42.44375 86.46375 -43.1875 86.1875 C-52.17700466 82.39193137 -58.47755778 74.99765248 -62.4375 66.125 C-62.97593708 64.75679757 -63.4968945 63.38158504 -64 62 C-64.33789551 61.23671387 -64.67579102 60.47342773 -65.02392578 59.68701172 C-68.75768462 49.40843497 -67.37164833 33.72219363 -62.83203125 23.87109375 C-59.25458695 18.26465119 -54.74415266 13.62665043 -50 9 C-49.47792969 8.43925781 -48.95585938 7.87851563 -48.41796875 7.30078125 C-46.71925977 5.74246144 -45.00653354 4.82187898 -42.9375 3.8125 C-42.24527344 3.46832031 -41.55304687 3.12414062 -40.83984375 2.76953125 C-39 2 -39 2 -37 2 C-37 1.34 -37 0.68 -37 0 C-24.25184231 -3.16025758 -12.77410491 -3.83223147 0 0 Z " fill="#FEFEFE" transform="translate(68,150)"/>
<path d="M0 0 C0 0.66 0 1.32 0 2 C0.86625 2.226875 1.7325 2.45375 2.625 2.6875 C10.90806021 5.90869008 17.42030223 13.83301712 21.328125 21.66015625 C22.30973344 24.08853833 23.18873517 26.50997923 24 29 C24.53560547 30.3921875 24.53560547 30.3921875 25.08203125 31.8125 C26.14473913 35.50258354 26.34346981 38.94253475 26.3125 42.75 C26.30831055 43.45447266 26.30412109 44.15894531 26.29980469 44.88476562 C26.08906626 54.66840935 23.13926361 65.01426894 16 72 C15.5875 72.763125 15.175 73.52625 14.75 74.3125 C10.77653542 80.41460632 4.72269884 84.37273839 -2 87 C-2.66 87 -3.32 87 -4 87 C-4 87.66 -4 88.32 -4 89 C-16.85656671 91.9211968 -28.1298806 92.78532923 -41 89 C-41 88.34 -41 87.68 -41 87 C-41.86625 86.731875 -42.7325 86.46375 -43.625 86.1875 C-55.0943697 82.15198103 -61.9060434 73.75343761 -67.140625 63.0546875 C-67.42421875 62.37664062 -67.7078125 61.69859375 -68 61 C-68.35707031 60.15824219 -68.71414062 59.31648438 -69.08203125 58.44921875 C-72.12855364 47.00207294 -71.59649063 32.41444783 -66.54296875 21.65625 C-62.09039584 13.9910612 -55.63705447 5.01053629 -46.73046875 2.3125 C-46.15941406 2.209375 -45.58835937 2.10625 -45 2 C-45 1.34 -45 0.68 -45 0 C-30.15237988 -5.97103574 -14.84762012 -5.97103574 0 0 Z " fill="#FFFFFF" transform="translate(72,280)"/>
<path d="M0 0 C5.94 0 11.88 0 18 0 C18 0.66 18 1.32 18 2 C19.11375 2.061875 20.2275 2.12375 21.375 2.1875 C29.97445927 3.28142415 39.93451983 8.79715335 45.3125 15.6796875 C46.23751756 17.10122184 47.12245659 18.54867821 48 20 C48.66 20.33 49.32 20.66 50 21 C50.90027614 22.9073158 51.72242135 24.85195871 52.5 26.8125 C54.11451203 30.96520408 54.11451203 30.96520408 56.11328125 34.93359375 C57.42986308 38.00175142 57.48254625 40.93042127 57.6875 44.25 C57.77386719 45.51328125 57.86023438 46.7765625 57.94921875 48.078125 C58.04837889 55.7363386 56.92392705 61.21080455 53.4375 67.9375 C52.90177368 68.98236572 52.90177368 68.98236572 52.35522461 70.04833984 C46.12094575 81.78940549 37.22452213 89.35076471 24.86767578 94.16430664 C19.66040638 95.68180052 14.51253049 95.61606024 9.125 95.5625 C7.48337891 95.59827148 7.48337891 95.59827148 5.80859375 95.63476562 C-7.67424627 95.61083159 -17.49551692 90.15018306 -27 81 C-31.41329896 76.28391754 -33.94453371 71.34575802 -36.140625 65.296875 C-36.92948485 63.01563408 -36.92948485 63.01563408 -38.0625 61.0859375 C-42.33786705 51.57324582 -39.62604302 40.03537496 -36.125 30.75 C-34.47214666 26.83212542 -32.50839262 23.44903986 -30 20 C-29.484375 19.05125 -28.96875 18.1025 -28.4375 17.125 C-22.72165252 9.79699041 -14.0079171 4.33652457 -5 2 C-2.2109375 1.90625 -2.2109375 1.90625 0 2 C0 1.34 0 0.68 0 0 Z " fill="#C5C5C5" transform="translate(178,403)"/>
<path d="M0 0 C0.66 0.66 1.32 1.32 2 2 C0.81857422 2.03867188 0.81857422 2.03867188 -0.38671875 2.078125 C-12.71725378 2.72018836 -23.14404098 5.35972169 -33 13 C-33.66 12.67 -34.32 12.34 -35 12 C-32.0098979 8.66488612 -29.10501426 6.78478881 -25 5 C-24.34 5 -23.68 5 -23 5 C-23 4.34 -23 3.68 -23 3 C-15.39802531 0.62438291 -7.95802493 -0.41162198 0 0 Z " fill="#D6D6D6" transform="translate(191,147)"/>
<path d="M0 0 C1.43791516 0.14168137 2.8753237 0.28851043 4.3125 0.4375 C5.11300781 0.51871094 5.91351563 0.59992188 6.73828125 0.68359375 C9 1 9 1 12 2 C12 2.66 12 3.32 12 4 C12.86625 4.2475 13.7325 4.495 14.625 4.75 C18.88946657 6.32943206 22.90956842 8.01541453 25.171875 12.1328125 C25.44515625 12.74898437 25.7184375 13.36515625 26 14 C25.33355469 13.54109375 24.66710937 13.0821875 23.98046875 12.609375 C16.37822732 7.54830238 8.89012193 4.10392677 0 2 C0 1.34 0 0.68 0 0 Z " fill="#D8D8D8" transform="translate(194,148)"/>
<path d="M0 0 C2.97 0.33 5.94 0.66 9 1 C9.33 1.99 9.66 2.98 10 4 C6.7 3.34 3.4 2.68 0 2 C0 1.34 0 0.68 0 0 Z " fill="#D2D2D2" transform="translate(194,148)"/>
</svg>
