<?xml version="1.0" encoding="UTF-8"?>
<svg version="1.1" xmlns="http://www.w3.org/2000/svg" width="1800" height="472">
<path d="M0 0 C1.98467004 1.61833135 3.86547005 3.29984147 5.73046875 5.0546875 C12.54568119 11.39378729 18.91135348 14.40753755 28.3125 14.75 C38.87984575 14.34118123 44.89233682 10.59792779 52.44140625 3.4375 C60.20113354 -3.72139173 67.76396909 -6.09364908 78.25 -5.6875 C89.0980848 -4.55486934 95.96551278 0.84327279 103.85546875 7.9453125 C110.59686721 13.19950681 118.32385067 15.04997742 126.8125 14.25 C134.96517907 12.72056259 140.49641175 9.18697239 146.546875 3.66796875 C153.72798537 -2.83785372 161.81144812 -6.14452165 171.578125 -5.9609375 C181.50462026 -5.02382081 189.09754452 -0.12860841 196.375 6.375 C202.86107007 12.10862575 209.91567233 14.59957395 218.56640625 14.46875 C227.86171348 13.5634679 234.40963034 9.49066249 241.125 3.25 C249.07898145 -3.85696845 257.12376644 -6.21632822 267.8125 -5.75 C277.54958216 -4.2381008 284.41362709 -0.20939374 290.8125 7.25 C296.82924085 15.9485676 297.61834357 23.76268365 296.8125 34.25 C294.65491575 43.27486668 289.72694752 50.69221354 281.875 55.625 C273.54919633 60.18436868 265.2724547 61.79687351 255.94140625 59.5625 C248.29029219 57.01566592 242.82205741 52.93939173 236.875 47.625 C230.69443371 42.83190777 223.71324064 39.94757931 215.8125 40.25 C205.38704672 41.70146873 198.35647102 45.98841323 190.6875 52.9375 C183.92133036 59.03108816 176.43847024 60.59381085 167.49609375 60.4609375 C158.2048766 59.73062349 151.82397256 55.82127565 145.078125 49.66796875 C138.37312396 43.59348386 130.97860767 40.14161697 121.8125 40.25 C111.07246655 41.05894483 103.49084499 46.57578397 95.75390625 53.640625 C88.21379407 59.89118077 79.34475573 61.13934318 69.8125 60.25 C62.67782786 58.55587839 56.04434926 55.49684023 50.8125 50.25 C50.8125 49.59 50.8125 48.93 50.8125 48.25 C50.22597656 47.96125 49.63945312 47.6725 49.03515625 47.375 C47.69422724 46.69628725 46.36420112 45.99439975 45.05859375 45.25 C37.14106174 40.87227172 28.98775923 39.26176498 20.14453125 41.50390625 C13.86949927 43.51149605 9.70149875 46.22097421 4.875 50.75 C-2.8392641 57.9769223 -10.808854 60.60976078 -21.25 60.45703125 C-30.13787986 59.83062482 -36.8749655 56.51425508 -43.1875 50.25 C-50.86673472 40.79483948 -52.39657096 31.11400879 -51.1875 19.25 C-49.12092026 10.17348786 -44.10066103 3.90827415 -36.375 -1.0625 C-25.08858296 -7.41746455 -10.75373017 -7.91711631 0 0 Z " fill="#1609AE" transform="translate(103.1875,164.75)"/>
<path d="M0 0 C3.63615981 2.30329094 6.86012746 5.05726388 10.09277344 7.8840332 C17.52985882 14.36184586 24.64207279 16.96087284 34.4296875 16.8046875 C43.68306741 15.98537782 49.46398455 12.05547443 56.0078125 5.73046875 C64.82367643 -2.24646619 74.10323958 -3.17981028 85.52392578 -2.64892578 C89.65749361 -2.24118209 92.95369079 -0.63157064 96.4296875 1.5390625 C97.5021875 2.1784375 98.5746875 2.8178125 99.6796875 3.4765625 C102.4296875 5.5390625 102.4296875 5.5390625 104.7421875 7.9765625 C111.66080988 14.57338849 119.03765257 16.93762297 128.421875 16.8125 C136.57698472 16.07112639 142.60902289 12.92376341 148.4609375 7.34765625 C157.2193445 -0.69826129 165.77770507 -3.07031169 177.4453125 -2.76953125 C185.49530967 -2.14605108 191.71849834 0.83498907 197.60546875 6.33984375 C204.48255301 14.6306327 207.27723162 23.97503044 206.4296875 34.5390625 C204.5721041 43.85429688 200.38639346 51.27193981 192.54296875 56.890625 C184.12438166 62.37473316 176.41893467 63.55815679 166.4296875 62.5390625 C159.25149327 60.65405018 154.00835103 57.75647505 149.07421875 52.24609375 C144.03656251 47.01698264 137.31277296 43.93473235 130.1328125 43.203125 C117.55618342 43.06085544 110.98024175 45.70497507 101.953125 54.34765625 C93.13604718 62.00459225 83.71792165 63.24374614 72.4296875 62.5390625 C63.76560894 61.0839245 57.79850173 55.62116913 51.4921875 49.8515625 C43.51374913 43.8270274 35.29071752 42.36253124 25.4296875 43.5390625 C18.83525028 45.11093823 14.32007987 48.1457259 9.4296875 52.73046875 C1.04734638 60.31059363 -6.95230776 63.08530201 -18.23046875 62.83984375 C-28.47538185 61.91720245 -35.91562228 57.28291965 -42.5703125 49.5390625 C-48.62333312 41.04574752 -48.6420938 31.53907701 -47.5703125 21.5390625 C-46.6701764 18.17154825 -45.41817156 15.47883828 -43.5703125 12.5390625 C-43.0340625 11.5078125 -42.4978125 10.4765625 -41.9453125 9.4140625 C-31.97802672 -2.65159923 -14.3143696 -6.69931776 0 0 Z " fill="#1E00FD" transform="translate(99.5703125,74.4609375)"/>
<path d="M0 0 C22.53475798 -0.56810314 42.27954965 5.36450723 58.96875 20.96875 C74.40158145 37.15902103 77.36134465 56.35577675 77.03125 77.76953125 C76.37364064 96.50317802 67.97636139 112.30141714 54.71875 125.28125 C38.22310229 139.28271043 15.91863972 143.41123835 -5.12133789 141.75756836 C-24.60889712 139.82734425 -42.44616437 132.0592645 -55.24609375 116.81640625 C-68.3357833 99.14389322 -71.73386584 78.2386086 -68.97216797 56.75146484 C-65.94982823 39.29291743 -56.63002357 23.64918574 -42.28125 13.15625 C-29.107865 4.84102664 -15.58036455 0.74192212 0 0 Z M-24.28125 41.15625 C-33.91316279 53.39797931 -35.74963369 65.98069107 -34.28125 81.15625 C-32.34241988 90.56560068 -27.00587722 99.86358938 -19.35546875 105.8046875 C-9.27471119 112.37331672 0.96727039 113.62447498 12.71875 112.15625 C16.38481422 111.26462697 19.45117707 110.02436441 22.71875 108.15625 C23.75 107.599375 24.78125 107.0425 25.84375 106.46875 C35.65678797 98.57565424 40.71159906 89.81330528 42.46484375 77.3984375 C43.49385098 64.25880671 41.20835246 52.39383072 32.640625 42.16015625 C24.62465698 33.80204326 15.70073644 30.09328952 4.15625 29.84375 C-6.9024099 29.95942636 -16.49326184 33.08424692 -24.28125 41.15625 Z " fill="#03204B" transform="translate(1231.28125,192.84375)"/>
<path d="M0 0 C11.55 0 23.1 0 35 0 C35.0093457 2.51729736 35.01869141 5.03459473 35.02832031 7.62817383 C35.06220267 15.97824178 35.11781383 24.32806552 35.18390274 32.67793751 C35.223284 37.7367202 35.25551819 42.79533126 35.27099609 47.85424805 C35.28622446 52.74335304 35.32077889 57.63198587 35.36830902 62.52087975 C35.38305935 64.37898321 35.39103734 66.23715411 35.39188385 68.09531593 C35.25933739 85.27347688 35.25933739 85.27347688 43.3125 100 C49.64112823 105.66459658 57.14054339 107.35935054 65.4765625 107.20703125 C74.48618186 106.46785195 81.68156939 103.54012993 88 97 C97.02524393 85.40740003 97.45829515 72.39016761 97.51171875 58.30078125 C97.52859591 56.61255107 97.54675015 54.92433322 97.56611633 53.23612976 C97.61329321 48.82878475 97.64331033 44.42148976 97.66955566 40.01397705 C97.70481054 34.70643984 97.76172983 29.3990946 97.81494904 24.09171295 C97.89308335 16.06116759 97.94397519 8.03086693 98 0 C109.55 0 121.1 0 133 0 C133 45.87 133 91.74 133 139 C121.45 139 109.9 139 98 139 C97.505 128.605 97.505 128.605 97 118 C96.071875 119.32 95.14375 120.64 94.1875 122 C85.52628233 133.0661433 74.34952294 138.14507603 60.75 140.3125 C45.02210623 142.08488194 30.77753576 140.0197685 17.5390625 131.03515625 C7.17978037 122.73179319 2.17298169 110.83232729 0 98 C-0.25327066 94.65641146 -0.25431475 91.33404272 -0.22705078 87.98217773 C-0.22734283 87.02501358 -0.22763489 86.06784943 -0.22793579 85.0816803 C-0.2265534 81.94888937 -0.21104389 78.81634262 -0.1953125 75.68359375 C-0.19157849 73.49927399 -0.18873335 71.31495254 -0.18673706 69.13063049 C-0.17913117 63.40468657 -0.15950897 57.67884544 -0.1373291 51.95294189 C-0.11680491 46.10080353 -0.10772132 40.24864842 -0.09765625 34.39648438 C-0.07626007 22.93093734 -0.04110289 11.46549334 0 0 Z " fill="#03204B" transform="translate(1478,194)"/>
<path d="M0 0 C-1.67932952 5.8100941 -4.39208392 11.00868579 -7.125 16.375 C-7.82689453 17.76525391 -7.82689453 17.76525391 -8.54296875 19.18359375 C-9.69169056 21.45759406 -10.84411881 23.72963282 -12 26 C-14.69672809 24.93383183 -17.35037641 23.83969707 -19.98828125 22.6328125 C-35.87937922 15.42486442 -51.96452638 10.66823104 -69 17 C-69.42228453 18.36710819 -69.81159889 19.74441774 -70.1875 21.125 C-70.51814453 22.27355469 -70.51814453 22.27355469 -70.85546875 23.4453125 C-71.06054629 27.07019656 -69.89195909 28.92924481 -68 32 C-59.17200823 37.83789222 -47.9712595 40.47971605 -37.93310547 43.60449219 C-23.64196854 48.07880327 -10.05385524 53.60323942 -2.0078125 66.91015625 C2.7551315 76.7868037 2.84053664 90.69216192 -0.4375 101.125 C-5.23936206 111.85758293 -14.20236772 118.59698707 -24.703125 123.1796875 C-46.85698264 131.4722517 -72.94497284 128.86651142 -94.27734375 119.359375 C-100.19837416 116.4031073 -105.75201999 113.03140283 -111 109 C-110.40541585 105.34430318 -109.39426489 102.43178554 -107.71484375 99.13671875 C-107.26689453 98.25048828 -106.81894531 97.36425781 -106.35742188 96.45117188 C-105.88884766 95.53916016 -105.42027344 94.62714844 -104.9375 93.6875 C-104.22883789 92.29047852 -104.22883789 92.29047852 -103.50585938 90.86523438 C-102.34262356 88.57401231 -101.17386868 86.2857876 -100 84 C-96.60686489 85.3168121 -93.72364538 86.74387907 -90.6875 88.75 C-77.75942358 96.61088701 -60.54657447 102.54648993 -45.36328125 99.46484375 C-38.73753674 97.70730245 -38.73753674 97.70730245 -34 93 C-33.03042056 89.74498332 -32.83826565 87.67928427 -33.625 84.375 C-36.50527962 79.39997157 -41.12072484 77.28599026 -46.3125 75.25 C-47.25464355 74.87875 -47.25464355 74.87875 -48.21582031 74.5 C-52.41383493 72.88339786 -56.65615348 71.4388648 -60.93359375 70.046875 C-61.97539795 69.7075293 -63.01720215 69.36818359 -64.09057617 69.01855469 C-66.14311376 68.35684487 -68.19913938 67.70582455 -70.2590332 67.06738281 C-82.14296471 63.26342099 -93.92015198 57.78067913 -100.41015625 46.5625 C-101.40630751 44.39167575 -102.26988285 42.27292423 -103 40 C-103.19078125 39.41089844 -103.3815625 38.82179687 -103.578125 38.21484375 C-105.74014804 26.86422277 -104.34631366 15.07908325 -98.25 5.25 C-90.78781897 -5.10605123 -79.42094228 -11.03640773 -66.99609375 -13.52734375 C-43.48065027 -16.78770647 -20.17127871 -12.64066799 0 0 Z " fill="#03204B" transform="translate(1747,207)"/>
<path d="M0 0 C21.82615031 -0.43507276 41.51963506 5.0412536 57.9140625 19.90625 C59.93486247 22.22627593 60.88646187 24.21115718 61.83984375 27.1171875 C45.91833957 43.33232598 45.91833957 43.33232598 39.83984375 46.1171875 C39.329375 45.59769531 38.81890625 45.07820313 38.29296875 44.54296875 C27.51192113 34.20157378 15.65931565 31.56791561 1.140625 31.8515625 C-8.45249095 32.27894744 -15.14797607 36.00124666 -21.99609375 42.62109375 C-30.54018434 52.47610077 -32.05823546 64.53061838 -31.35107422 77.10400391 C-30.46236661 86.47520971 -26.66661654 95.30265617 -20.16015625 102.1171875 C-10.24998603 109.56529981 -0.21875825 111.79983334 12.10546875 110.87109375 C22.35387241 109.38638912 29.8735875 105.5938186 37.83984375 99.1171875 C39.50651042 97.78385417 41.17317708 96.45052083 42.83984375 95.1171875 C49.83984375 101.1171875 56.83984375 107.1171875 63.83984375 113.1171875 C55.47891413 127.0520702 41.44113602 135.64753176 25.88037109 139.65625 C4.95503852 144.38310187 -17.33954035 142.90674055 -36.15625 132.1015625 C-40.9853492 128.91146836 -45.10077066 125.22686637 -49.16015625 121.1171875 C-49.79566406 120.50359375 -50.43117188 119.89 -51.0859375 119.2578125 C-64.80660295 105.0199601 -67.61432224 85.19068778 -67.375 66.27734375 C-67.0435151 55.11186163 -64.4465004 44.97796126 -59.16015625 35.1171875 C-58.74121094 34.28832031 -58.32226562 33.45945313 -57.890625 32.60546875 C-49.24882256 16.74141067 -34.68727063 7.55867608 -17.77514648 2.56811523 C-11.72072194 0.89703794 -6.23561318 0.23123411 0 0 Z " fill="#03204B" transform="translate(1391.16015625,192.8828125)"/>
<path d="M0 0 C-0.61722584 9.56700056 -2.8201341 18.69247957 -5 28 C-8.74092727 27.50718323 -12.18546328 26.94527313 -15.8125 25.875 C-22.00024015 24.28901612 -27.76057327 24.85992821 -33.4375 27.75 C-37.60510238 31.40935819 -39.1272341 34.35562964 -39.51171875 39.86328125 C-39.58691187 41.67907609 -39.64220859 43.49571339 -39.6875 45.3125 C-39.790625 48.509375 -39.89375 51.70625 -40 55 C-28.78 55 -17.56 55 -6 55 C-6 63.25 -6 71.5 -6 80 C-17.22 80 -28.44 80 -40 80 C-40 115.64 -40 151.28 -40 188 C-51.55 188 -63.1 188 -75 188 C-75 152.36 -75 116.72 -75 80 C-80.94 80 -86.88 80 -93 80 C-93 71.75 -93 63.5 -93 55 C-87.06 55 -81.12 55 -75 55 C-75.03480469 53.62328125 -75.06960938 52.2465625 -75.10546875 50.828125 C-75.37167047 36.03510729 -74.63339512 24.49874897 -66 12 C-65.13375 10.6696875 -65.13375 10.6696875 -64.25 9.3125 C-48.12639967 -7.25897812 -20.24939002 -11.1045042 0 0 Z " fill="#03204B" transform="translate(1164,145)"/>
<path d="M0 0 C3.23548207 2.07995276 6.27905172 4.27247938 9 7 C9 7.66 9 8.32 9 9 C9.556875 9.27714844 10.11375 9.55429687 10.6875 9.83984375 C12.27500173 10.63627621 13.8581404 11.44144722 15.4375 12.25390625 C16.7059375 12.90166016 16.7059375 12.90166016 18 13.5625 C19.2684375 14.21412109 19.2684375 14.21412109 20.5625 14.87890625 C27.62542374 18.12739842 35.15989317 17.85302979 42.5 15.5625 C47.88835638 13.43451723 51.52025625 10.16389684 55.66015625 6.1875 C63.20598938 -0.86703514 71.17295417 -3.51332021 81.421875 -3.24609375 C91.45535702 -2.28835228 98.60200211 2.10046914 105.3125 9.4375 C111.40748011 16.94028801 112.74146211 25.56695433 112 35 C110.22004102 45.00095594 105.26397411 51.95726627 97.015625 57.75 C89.46588626 62.43200852 81.35767275 64.21000868 72.578125 62.5390625 C64.62710918 60.44019186 58.53886351 56.35856572 52.5 50.875 C46.60430103 45.65113649 39.55381564 43.35716201 31.8125 42.75 C22.91421902 43.33349383 16.73383267 46.3314807 10 52 C0.75910938 59.55635327 -6.7612211 63.39924026 -19 63 C-28.7343102 61.50327947 -35.60708313 57.45245057 -42 50 C-48.02065498 41.29577363 -48.79487632 33.49236737 -48 23 C-46.31071067 15.55084464 -42.37020864 10.284187 -37 5 C-35.88625 3.88625 -35.88625 3.88625 -34.75 2.75 C-24.06690997 -4.04833002 -11.59409031 -5.3511186 0 0 Z " fill="#160AAE" transform="translate(194,250)"/>
<path d="M0 0 C5.94 0 11.88 0 18 0 C18.33 27.72 18.66 55.44 19 84 C22.465 78.555 22.465 78.555 26 73 C37.93419447 60.70956092 52.02530608 56.06132733 68.81494141 55.59765625 C84.15128638 55.42837573 97.73044286 57.42751356 109.44140625 68.2578125 C124.02677164 83.58806476 124.45599803 101.47521196 124.29296875 121.4921875 C124.28736107 123.5348377 124.28309653 125.57749199 124.28010559 127.62014771 C124.26874902 132.94988497 124.23936277 138.27936997 124.20599365 143.60900879 C124.17509276 149.06612742 124.16155781 154.52328752 124.14648438 159.98046875 C124.11448271 170.65377348 124.06179173 181.32682613 124 192 C117.73 192 111.46 192 105 192 C104.9906543 189.36676758 104.98130859 186.73353516 104.97167969 184.02050781 C104.93778869 175.28328808 104.88217279 166.54630153 104.81609726 157.80926895 C104.7767256 152.51622598 104.74448671 147.22334681 104.72900391 141.93017578 C104.71376921 136.81414162 104.67920363 131.69855811 104.63169098 126.58272552 C104.61694714 124.63892299 104.60896304 122.69505608 104.60811615 120.75119781 C104.59630112 107.22028012 104.23476628 94.82721292 95.0546875 83.97265625 C85.21402265 74.52486965 73.93903283 73.42864056 60.96875 73.6875 C49.2961419 74.21567231 39.32403357 79.19364808 31.3125 87.625 C19.57753491 102.05546751 18.56087924 119.52434638 18.48828125 137.3125 C18.47137802 138.90390351 18.45322054 140.49529413 18.43388367 142.08666992 C18.38698859 146.21610478 18.35679242 150.34548745 18.33044434 154.47509766 C18.30032815 158.71267007 18.25390727 162.95006327 18.20898438 167.1875 C18.12364228 175.4582586 18.0575081 183.72900101 18 192 C12.06 192 6.12 192 0 192 C0 128.64 0 65.28 0 0 Z " fill="#03204B" transform="translate(918,141)"/>
<path d="M0 0 C13.55113208 10.1946209 22.63211941 24.80117006 25.9140625 41.45703125 C28.35857615 62.49730943 25.95699915 82.66407022 12.9140625 100.03515625 C11.74284188 101.44467717 10.55607752 102.84147903 9.3515625 104.22265625 C8.85398437 104.8259375 8.35640625 105.42921875 7.84375 106.05078125 C-3.76981549 119.00661812 -22.26899517 124.33998471 -39.0234375 125.4453125 C-58.97683951 125.96682187 -77.5864066 119.91111057 -92.3359375 106.09765625 C-107.08183682 90.48124767 -111.20282055 71.73793097 -110.92578125 50.92578125 C-110.33482588 33.25004167 -103.00676555 17.92770657 -90.78125 5.29296875 C-66.69561596 -17.19361904 -26.7540757 -17.95443133 0 0 Z M-81.8671875 21.71875 C-91.59655842 35.39534378 -94.52708959 51.21772359 -92.14453125 67.7109375 C-89.51533583 80.49633921 -83.59659139 92.08113742 -72.9609375 99.97265625 C-60.08360062 108.42648046 -46.61418492 110.91565169 -31.390625 108.76171875 C-19.2035926 106.05702488 -9.42197349 100.02234388 -1.6484375 90.22265625 C7.53110215 75.77049967 10.30740954 59.94725449 7.2265625 43.22265625 C4.06686948 29.89316057 -2.4816559 19.19972153 -13.8359375 11.41015625 C-35.94395377 -1.5767932 -65.12247915 1.43981017 -81.8671875 21.71875 Z " fill="#03204B" transform="translate(660.6484375,208.77734375)"/>
<path d="M0 0 C-0.56820748 5.45479185 -1.94637945 9.91059256 -4 15 C-6.60409741 14.5535833 -8.90968135 14.03795784 -11.3515625 13.01171875 C-18.39269248 10.32196556 -25.6475377 10.44067995 -32.7109375 12.9296875 C-38.81878115 15.78557344 -42.39001356 19.8574196 -45.2734375 25.875 C-47.41663725 32.14328314 -47.30426973 38.82126058 -47.5625 45.375 C-47.706875 48.88125 -47.85125 52.3875 -48 56 C-34.8 56 -21.6 56 -8 56 C-8 60.62 -8 65.24 -8 70 C-21.2 70 -34.4 70 -48 70 C-48 108.94 -48 147.88 -48 188 C-53.94 188 -59.88 188 -66 188 C-66 149.06 -66 110.12 -66 70 C-71.61 70 -77.22 70 -83 70 C-83 65.38 -83 60.76 -83 56 C-77.39 56 -71.78 56 -66 56 C-66.05220703 53.48439453 -66.05220703 53.48439453 -66.10546875 50.91796875 C-66.13362958 48.67448927 -66.16092726 46.43099885 -66.1875 44.1875 C-66.21263672 43.08728516 -66.23777344 41.98707031 -66.26367188 40.85351562 C-66.39162655 26.39463679 -62.45614516 14.89982653 -52.55859375 4.3359375 C-38.17854003 -8.79272223 -16.5712811 -9.40532171 0 0 Z " fill="#03204B" transform="translate(552,145)"/>
<path d="M0 0 C5.94 0 11.88 0 18 0 C18 11.55 18 23.1 18 35 C32.52 35 47.04 35 62 35 C62 39.62 62 44.24 62 49 C47.48 49 32.96 49 18 49 C18.09103323 63.28139823 18.09103323 63.28139823 18.20898438 77.5625 C18.26311775 83.39515712 18.31423444 89.22772205 18.34643555 95.06054688 C18.3726241 99.76805027 18.4131341 104.47524053 18.46318626 109.18254852 C18.47975054 110.97005032 18.49132932 112.75760615 18.49761391 114.54517365 C18.11508743 131.21727158 18.11508743 131.21727158 24.375 146.125 C30.06034638 150.1859617 35.12083725 150.81617185 42 150 C46.56345646 148.72030057 50.943597 147.0922287 55.1328125 144.8671875 C57 144 57 144 60 144 C60.67756882 145.55780332 61.34159457 147.12150096 62 148.6875 C62.37125 149.55761719 62.7425 150.42773438 63.125 151.32421875 C64.01870488 154.0572002 64.16449676 156.14700934 64 159 C50.64293369 166.31796718 36.93675318 170.79823818 21.6875 166.875 C12.88619874 163.79383133 7.30600551 158.1526368 3 150 C-1.26103329 139.93228623 -0.38135869 128.93442427 -0.29296875 118.23828125 C-0.28736439 116.23618388 -0.28309827 114.23408235 -0.28010559 112.23197937 C-0.26872294 106.99590433 -0.23931322 101.76008414 -0.20599365 96.52410889 C-0.17515001 91.16780035 -0.16156987 85.81145012 -0.14648438 80.45507812 C-0.11443648 69.96992285 -0.06172315 59.48502262 0 49 C-6.27 49 -12.54 49 -19 49 C-20 45 -20 45 -20 35 C-13.4 35 -6.8 35 0 35 C0 23.45 0 11.9 0 0 Z " fill="#03204B" transform="translate(822,166)"/>
<path d="M0 0 C1.98467004 1.61833135 3.86547005 3.29984147 5.73046875 5.0546875 C13.5326861 12.31183976 20.91262339 14.97715088 31.62109375 14.6484375 C36.44461782 14.04623498 40.49890498 12.42665753 44.8125 10.25 C45.93978516 9.68925781 45.93978516 9.68925781 47.08984375 9.1171875 C47.65832031 8.83101562 48.22679687 8.54484375 48.8125 8.25 C48.544375 8.86875 48.27625 9.4875 48 10.125 C43.993073 20.66954473 41.76108824 28.9425478 46.3125 39.6875 C46.7765625 40.67621094 47.240625 41.66492188 47.71875 42.68359375 C48.8125 45.25 48.8125 45.25 48.8125 48.25 C47.78125 47.46625 46.75 46.6825 45.6875 45.875 C39.64619342 41.58918331 32.75672648 39.75400276 25.359375 40.49609375 C16.85913356 41.9692951 11.1594839 44.85284947 4.875 50.75 C-2.8392641 57.9769223 -10.808854 60.60976078 -21.25 60.45703125 C-30.13787986 59.83062482 -36.8749655 56.51425508 -43.1875 50.25 C-50.86673472 40.79483948 -52.39657096 31.11400879 -51.1875 19.25 C-49.12092026 10.17348786 -44.10066103 3.90827415 -36.375 -1.0625 C-25.08858296 -7.41746455 -10.75373017 -7.91711631 0 0 Z " fill="#1D00FC" transform="translate(103.1875,164.75)"/>
<path d="M0 0 C6.04037396 4.88687339 9.64440104 11.98269649 11.6875 19.375 C12.68050601 29.12031476 11.86921693 37.5061052 6.109375 45.58984375 C-0.3613282 53.41589694 -7.14580683 57.87951223 -17.3125 59.375 C-27.54522799 59.79366757 -35.47346561 57.1658062 -43.625 51.0625 C-49.88791671 44.79958329 -53.49013711 37.63698334 -53.69311523 28.66601562 C-53.66363202 17.94950787 -51.80658072 10.08473224 -44.30078125 2.12890625 C-31.36027701 -9.28619474 -14.05804716 -9.40766654 0 0 Z " fill="#1E00FD" transform="translate(105.3125,253.625)"/>
<path d="M0 0 C6.52485116 5.22859525 11.56857535 11.99532778 12.83642578 20.43164062 C13.82235805 31.4523372 12.30908356 39.98089249 5.21484375 48.625 C-0.66268378 54.9295274 -6.40921763 58.91950238 -15.20703125 59.7109375 C-27.14745434 59.98261276 -35.61495768 58.04241741 -44.4921875 49.66796875 C-52.03501661 40.93494964 -53.1180497 31.51716999 -52.47265625 20.375 C-51.15118797 12.28858401 -46.51603377 5.71828742 -40.26171875 0.546875 C-28.03718706 -8.04784694 -12.53392103 -8.23714242 0 0 Z " fill="#160AAE" transform="translate(198.47265625,340.625)"/>
<path d="M0 0 C5.94 0 11.88 0 18 0 C18.33 8.91 18.66 17.82 19 27 C21.31 23.37 23.62 19.74 26 16 C34.21055977 7.35730551 46.80791065 0.33135703 58.92578125 -0.10546875 C61.61736278 -0.12256901 64.30920489 -0.06726988 67 0 C67 5.61 67 11.22 67 17 C63.65875 17.3403125 63.65875 17.3403125 60.25 17.6875 C47.90811494 19.23846759 38.40293641 23.60671751 30 33 C22.42420074 42.95956368 18.89763884 55.15264526 18.79467773 67.54418945 C18.77982834 68.6571917 18.77982834 68.6571917 18.76467896 69.79267883 C18.73321966 72.23284775 18.70836846 74.67303609 18.68359375 77.11328125 C18.66301076 78.81007885 18.64201394 80.50687148 18.62062073 82.20365906 C18.56553896 86.66041018 18.51606864 91.1172065 18.46777344 95.57403564 C18.4174567 100.12556969 18.36182383 104.67703844 18.30664062 109.22851562 C18.19922909 118.15228993 18.09823818 127.07611999 18 136 C12.06 136 6.12 136 0 136 C0 91.12 0 46.24 0 0 Z " fill="#03204B" transform="translate(723,197)"/>
</svg>
